<?xml version="1.0" encoding="utf-8"?>
<!-- Generator: Adobe Illustrator 14.0.0, SVG Export Plug-In . SVG Version: 6.00 Build 43363)  -->
<!DOCTYPE svg PUBLIC "-//W3C//DTD SVG 1.1//EN" "http://www.w3.org/Graphics/SVG/1.1/DTD/svg11.dtd">
<svg version="1.1" id="Layer_1" xmlns="http://www.w3.org/2000/svg" xmlns:xlink="http://www.w3.org/1999/xlink" x="0px" y="0px"
	 width="322.292px" height="87.832px" viewBox="0 0 322.292 87.832" enable-background="new 0 0 322.292 87.832"
	 xml:space="preserve">
<circle fill-rule="evenodd" clip-rule="evenodd" fill="#F00A0A" cx="278.375" cy="43.916" r="43.916"/>
<g>
	<path fill="#062C51" d="M5.31,73.459V35.313H1.77c-1.181,0-1.77-0.886-1.77-2.655v-1.063c0-1.77,0.589-2.655,1.77-2.655h3.54
		v-8.408c0-5.073,1.357-8.437,4.071-10.089c2.301-1.416,4.749-2.124,7.346-2.124c4.306,0,6.461,0.885,6.461,2.654
		c0,0.591-0.177,1.432-0.531,2.522c-0.354,1.093-0.796,1.638-1.328,1.638c-0.119,0-0.531-0.073-1.239-0.222
		c-0.708-0.146-1.697-0.221-2.965-0.221c-1.27,0-2.316,0.429-3.142,1.283c-0.827,0.856-1.239,2.611-1.239,5.267v7.699h7.7
		c1.18,0,1.77,0.886,1.77,2.655v1.063c0,1.77-0.59,2.655-1.77,2.655h-7.7v38.146c0,1.299-1.181,1.947-3.54,1.947H8.851
		C6.49,75.406,5.31,74.758,5.31,73.459z"/>
	<path fill="#062C51" d="M30.481,73.459V42.394c0-3.599-0.148-6.165-0.442-7.7c-0.414-2.124-0.62-3.274-0.62-3.451
		c0-0.708,0.56-1.224,1.682-1.549c1.12-0.324,1.992-0.487,2.611-0.487c0.62,0,1.047,0.06,1.284,0.178
		c0.235,0.118,0.456,0.31,0.664,0.575c0.206,0.266,0.368,0.53,0.487,0.796c0.118,0.266,0.235,0.62,0.354,1.063
		c0.118,0.442,0.221,0.797,0.31,1.062c0.088,0.266,0.177,0.65,0.265,1.151c0.089,0.502,0.162,0.841,0.222,1.018
		c3.126-4.426,6.549-6.638,10.267-6.638c1.651,0,2.92,0.324,3.806,0.974s1.328,1.475,1.328,2.478c0,1.004-0.177,2.051-0.531,3.143
		s-0.768,1.637-1.239,1.637c-0.237,0-0.812-0.161-1.726-0.486c-0.916-0.324-2.006-0.487-3.275-0.487
		c-1.27,0-2.582,0.458-3.938,1.372c-1.358,0.915-2.36,1.814-3.009,2.699l-1.062,1.328v32.393c0,1.299-1.181,1.947-3.54,1.947h-0.354
		C31.661,75.406,30.481,74.758,30.481,73.459z"/>
	<path fill="#062C51" d="M62.087,70.008c-3.54-3.835-5.311-9.691-5.311-17.568s1.74-13.852,5.222-17.923
		c3.48-4.071,8.437-6.106,14.869-6.106c12.509,0,18.764,7.699,18.764,23.1c0,0.531-0.354,1.27-1.062,2.213
		c-0.708,0.944-1.328,1.416-1.859,1.416H64.742c0.354,4.898,1.622,8.496,3.806,10.798c2.182,2.301,5.457,3.451,9.824,3.451
		c4.012,0,7.7-0.942,11.063-2.832c1.121-0.589,1.74-0.885,1.859-0.885c0.589,0,1.253,0.591,1.991,1.771
		c0.737,1.181,1.106,2.065,1.106,2.654c0,1.182-1.608,2.421-4.824,3.718c-3.216,1.299-6.918,1.947-11.107,1.947
		C71.084,75.761,65.627,73.844,62.087,70.008z M87.754,48.767c0-9.322-3.541-13.984-10.621-13.984
		c-7.611,0-11.742,4.662-12.391,13.984H87.754z"/>
	<path fill="#062C51" d="M103.224,73.459V42.394c0-3.599-0.148-6.165-0.442-7.7c-0.414-2.124-0.62-3.274-0.62-3.451
		c0-0.708,0.56-1.224,1.682-1.549c1.12-0.324,1.992-0.487,2.611-0.487c0.62,0,1.047,0.06,1.284,0.178
		c0.235,0.118,0.456,0.31,0.664,0.575c0.206,0.266,0.368,0.53,0.487,0.796c0.118,0.266,0.235,0.62,0.354,1.063
		c0.118,0.442,0.221,0.797,0.31,1.062c0.088,0.266,0.177,0.65,0.265,1.151c0.089,0.502,0.162,0.841,0.221,1.018
		c3.953-4.426,8.364-6.638,13.232-6.638s8.585,1.27,11.152,3.806c2.566,2.537,3.85,6.049,3.85,10.532v30.711
		c0,1.299-1.181,1.947-3.541,1.947h-0.354c-2.36,0-3.54-0.648-3.54-1.947V43.456c0-2.714-0.783-4.824-2.346-6.328
		c-1.564-1.505-3.792-2.257-6.682-2.257c-4.248,0-7.965,2.065-11.152,6.195v32.393c0,1.299-1.181,1.947-3.54,1.947h-0.354
		C104.403,75.406,103.224,74.758,103.224,73.459z"/>
	<path fill="#062C51" d="M145.512,51.864c0-4.426,0.604-8.231,1.814-11.418c1.209-3.186,2.847-5.634,4.912-7.346
		c3.895-3.127,8.644-4.69,14.25-4.69c3.421,0,6.489,0.413,9.204,1.238c2.714,0.827,4.071,1.771,4.071,2.833
		c0,0.768-0.34,1.756-1.018,2.965c-0.679,1.21-1.283,1.814-1.814,1.814c-0.06,0-0.163-0.029-0.31-0.089
		c-0.148-0.058-0.266-0.103-0.354-0.133c-0.088-0.029-0.192-0.073-0.31-0.133c-3.187-1.416-6.402-2.124-9.647-2.124
		c-8.556,0-12.833,5.636-12.833,16.904c0,6.255,1.047,10.77,3.142,13.542c2.094,2.773,5.62,4.159,10.577,4.159
		c3.598,0,6.933-0.766,10.001-2.301c0.177-0.058,0.368-0.133,0.575-0.222c0.206-0.088,0.339-0.133,0.398-0.133
		c0.589,0,1.239,0.576,1.947,1.727s1.062,2.08,1.062,2.788c0,1.062-1.387,2.079-4.159,3.053c-2.774,0.974-6.019,1.461-9.736,1.461
		c-7.316,0-12.775-1.888-16.373-5.665C147.311,66.32,145.512,60.243,145.512,51.864z"/>
	<path fill="#062C51" d="M187.976,73.459V10.62c0-1.297,1.18-1.947,3.54-1.947h0.354c2.359,0,3.54,0.65,3.54,1.947v23.896
		c4.071-4.071,8.585-6.106,13.541-6.106c3.363,0,6.401,0.855,9.116,2.566c1.475,1.004,2.669,2.509,3.585,4.514
		c0.914,2.007,1.372,4.426,1.372,7.258v30.711c0,1.299-1.182,1.947-3.541,1.947h-0.354c-2.36,0-3.54-0.648-3.54-1.947V43.456
		c0-2.655-0.768-4.749-2.302-6.284c-1.535-1.533-3.526-2.301-5.974-2.301c-2.449,0-4.603,0.517-6.461,1.549
		c-1.859,1.032-3.23,2.051-4.116,3.053l-1.327,1.594v32.393c0,1.299-1.181,1.947-3.54,1.947h-0.354
		C189.156,75.406,187.976,74.758,187.976,73.459z"/>
	<path fill="#062C51" d="M230.352,73.459v-5.841c0-1.298,1.18-1.947,3.54-1.947h1.505c2.359,0,3.54,0.649,3.54,1.947v5.841
		c0,1.299-1.181,1.947-3.54,1.947h-1.505C231.532,75.406,230.352,74.758,230.352,73.459z"/>
	<path fill="#FFFFFF" d="M255.603,17.789c-2.36,0-3.54-0.648-3.54-1.947V10.62c0-1.297,1.18-1.947,3.54-1.947h1.063
		c2.358,0,3.54,0.65,3.54,1.947v5.222c0,1.299-1.182,1.947-3.54,1.947H255.603z M252.417,73.459V30.711
		c0-1.297,1.18-1.947,3.541-1.947h0.354c2.359,0,3.54,0.65,3.54,1.947v42.748c0,1.299-1.181,1.947-3.54,1.947h-0.354
		C253.596,75.406,252.417,74.758,252.417,73.459z"/>
	<path fill="#FFFFFF" d="M272.995,70.008c-3.54-3.835-5.31-9.691-5.31-17.568s1.739-13.852,5.222-17.923
		c3.48-4.071,8.437-6.106,14.869-6.106c12.508,0,18.763,7.699,18.763,23.1c0,0.531-0.354,1.27-1.062,2.213
		c-0.708,0.944-1.328,1.416-1.858,1.416H275.65c0.354,4.898,1.622,8.496,3.806,10.798c2.183,2.301,5.457,3.451,9.824,3.451
		c4.013,0,7.7-0.942,11.063-2.832c1.12-0.589,1.74-0.885,1.858-0.885c0.59,0,1.253,0.591,1.992,1.771
		c0.736,1.181,1.106,2.065,1.106,2.654c0,1.182-1.608,2.421-4.824,3.718c-3.217,1.299-6.919,1.947-11.107,1.947
		C281.993,75.761,276.536,73.844,272.995,70.008z M298.662,48.767c0-9.322-3.54-13.984-10.62-13.984
		c-7.612,0-11.742,4.662-12.392,13.984H298.662z"/>
</g>
</svg>
