<svg xmlns="http://www.w3.org/2000/svg" width="162.721" height="33.442" viewBox="0 0 162.721 33.442"><path d="M12.999 26.709c2.153 0 3.22-.604 3.22-2.194 0-1.592-1.067-2.237-3.22-2.237h-5.161c-5.511 0-7.838-1.117-7.838-6.41 0-4.861 2.539-7.099 8.004-7.099h12.87v4.732h-10.589c-2.705 0-4.131.173-4.131 2.065 0 1.42.902 2.023 2.843 2.023h5.419c4.986 0 7.618 2.406 7.618 6.754 0 4.259-2.632 7.098-6.201 7.098h-15.438v-4.732h12.604" fill="#2a4b59"/><path d="M45.006 26.581v4.861h-8.133c-3.744 0-6.412-.645-8.519-2.71-2.061-2.022-3.358-5.12-3.358-8.521 0-3.57 1.251-6.71 3.358-8.732 2.107-2.021 4.775-2.71 8.519-2.71h8.133v4.905h-6.366c-5.125 0-7.406 1.289-7.406 6.537 0 2.712.818 4.518 2.668 5.637 1.205.732 2.714.732 4.738.732h6.366" fill="#2a4b59"/><path d="M59.459 26.966c3.524 0 5.769-2.451 5.769-6.839 0-4.389-2.199-6.842-5.769-6.842-3.487 0-5.722 2.453-5.722 6.842 0 4.388 2.199 6.839 5.722 6.839m.046 4.863c-7.406 0-12.052-4.689-12.052-11.701 0-7.058 4.646-11.746 12.052-11.746 7.351 0 11.997 4.688 11.997 11.746 0 7.011-4.554 11.701-11.997 11.701z" fill="#2a4b59"/><path d="M75.164 31.442v-22.672h6.284v22.672h-6.284zm0-25.255v-5.637h6.284v5.637h-6.284z" fill="#2a4b59"/><path fill="#2a4b59" d="M86.517.55h6.236v30.892h-6.236z"/><path d="M109.13 8.769c6.707 0 9.468 2.278 9.468 8.304v14.369h-5.98v-13.64c0-3.139-.561-4.043-3.956-4.043h-4.821v17.683h-5.962v-22.673h11.251" fill="#f68b1f"/><path d="M122.378 20.127c0-7.401 3.873-11.358 11.408-11.358h8.731v4.732h-7.921c-3.828 0-5.456.646-5.595 4.26h13.516v4.731h-13.516c.139 3.744 1.685 4.217 5.558 4.217h7.958v4.732h-8.731c-7.535.001-11.408-3.87-11.408-11.314" fill="#006c91"/><path d="M150.42 8.769v-8.219h5.98v8.219h6.32v4.517h-6.32v9.164c0 3.14.818 4.473 3.863 4.473h2.457v4.52h-5.466c-4.342 0-6.835-2.453-6.835-7.098v-11.059h-4.223v-4.517h4.224" fill="#1ab78d"/></svg>